# AST/ASF file generated using VICON BodyLanguage
# -----------------------------------------------
:version 1.10
:name VICON
:units
  mass 1.0
  length 0.45
  angle deg
:documentation
   .ast/.asf automatically generated from VICON data using
   VICON BodyBuilder and BodyLanguage model FoxedUp or BRILLIANT.MOD
:root
   order TX TY TZ RX RY RZ
   axis XYZ
   position 0 0 0  
   orientation 0 0 0 
:bonedata
  begin
     id 1 
     name lhipjoint
     direction 0.711131 -0.61297 0.344326 
     length 2.29162 
     axis 0 0 0  XYZ
  end
  begin
     id 2 
     name lfemur
     direction 0.34202 -0.939693 0  
     length 6.71424  
     axis 0 0 20  XYZ
    dof rx ry rz
    limits (-160.0 20.0)
           (-70.0 70.0)
           (-60.0 70.0)
  end
  begin
     id 3 
     name ltibia
     direction 0.34202 -0.939693 0   
     length 6.7087   
     axis 0 0 20   XYZ
    dof rx
    limits (-10.0 170.0)
  end
  begin
     id 4 
     name lfoot
     direction 0.0230374 -0.0632947 0.997729   
     length 1.56743   
     axis -90 7.62852e-016 20   XYZ
    dof rx rz
    limits (-45.0 90.0)
           (-70.0 20.0)
  end
  begin
     id 5 
     name ltoes
     direction 1.53585e-011 -4.21885e-011 1   
     length 0.802914   
     axis -90 7.62852e-016 20   XYZ
    dof rx
    limits (-90.0 20.0)
  end
  begin
     id 6 
     name rhipjoint
     direction -0.733192 -0.592884 0.333043   
     length 2.36925  
     axis 0 0 0  XYZ 
  end
  begin
     id 7 
     name rfemur
     direction -0.34202 -0.939693 0   
     length 6.67027   
     axis 0 0 -20   XYZ
    dof rx ry rz
    limits (-160.0 20.0)
           (-70.0 70.0)
           (-70.0 60.0)
  end
  begin
     id 8 
     name rtibia
     direction -0.34202 -0.939693 0   
     length 6.6862   
     axis 0 0 -20   XYZ
    dof rx
    limits (-10.0 170.0)
 end
 begin
     id 9 
     name rfoot
     direction -0.0949739 -0.260939 0.960672   
     length 1.67698  
     axis -90 -7.62852e-016 -20   XYZ
    dof rx rz
    limits (-45.0 90.0)
           (-20.0 70.0)
  end
  begin
     id 10 
     name rtoes
     direction -1.5353e-011 -4.21868e-011 1   
     length 0.846298   
     axis -90 -7.62852e-016 -20   XYZ
    dof rx
    limits (-90.0 20.0)
  end
  begin
     id 11 
     name lowerback
     direction -0.0206828 0.999785 -0.00109866   
     length 2.04382   
     axis 0 0 0   XYZ
    dof rx ry rz
    limits (-20.0 45.0)
           (-30.0 30.0)
           (-30.0 30.0)
  end
  begin
     id 12 
     name upperback
     direction -0.0105003 0.999727 -0.0208904   
     length 2.04538   
     axis 0 0 0   XYZ
    dof rx ry rz
    limits (-20.0 45.0)
           (-30.0 30.0)
           (-30.0 30.0)
  end
  begin
     id 13 
     name thorax
     direction -0.000416255 0.999808 -0.0196023   
     length 2.0399   
     axis 0 0 0   XYZ
    dof rx ry rz
    limits (-20.0 45.0)
           (-30.0 30.0)
           (-30.0 30.0)
  end
  begin
     id 14 
     name lowerneck
     direction 0.0627861 0.989205 0.13241   
     length 1.46207   
     axis 0 0 0   XYZ
    dof rx ry rz
    limits (-20.0 45.0)
           (-30.0 30.0)
           (-30.0 30.0)
  end
  begin
     id 15 
     name upperneck
     direction 0.00627179 0.994526 0.104303   
     length 1.41419   
     axis 0 0 0   XYZ
    dof rx ry rz
    limits (-20.0 45.0)
           (-30.0 30.0)
           (-30.0 30.0)
  end
  begin
     id 16
     name head
     direction -0.00443838 0.999688 0.0245968  
     length 1.50718  
     axis 0 0 0   XYZ
    dof rx ry rz
    limits (-20.0 45.0)
           (-30.0 30.0)
           (-30.0 30.0)
  end
  begin
     id 17 
     name lclavicle
     direction 0.758742 0.650995 -0.0227258  
     length 2.86888  
     axis 0 0 0   XYZ
    dof ry rz
    limits (-20.0 10.0)
           (0.0 20.0)
  end
  begin
     id 18 
     name lhumerus
     direction 1 -4.48962e-011 1.06664e-027   
     length 4.65776   
     axis -180 -30 -90   XYZ
    dof rx ry rz
    limits (-60.0 90.0)
           (-90.0 90.0)
           (-90.0 90.0)
  end
  begin
     id 19
     name lradius
     direction 1 -4.48968e-011 1.40404e-026   
     length 3.55539   
     axis -180 -30 -90   XYZ
    dof rx
    limits (-10.0 170.0)
  end
  begin
     id 20
     name lwrist
     direction 1 -4.48976e-011 3.32647e-026   
     length 1.77769   
     axis -2.20186e-014 90 90   XYZ
    dof ry
    limits (-180.0 0.0)
 end
  begin
     id 21 
     name lhand
     direction 1 -4.48982e-011 6.65293e-026   
     length 0.707264   
     axis -4.24514e-014 90 90   XYZ
    dof rx rz
    limits (-90.0 90.0)
           (-45.0 45.0)
  end
  begin
     id 22 
     name lfingers
     direction 1 -4.48966e-011 1.33059e-025   
     length 0.570215   
     axis -8.49028e-014 90 90   XYZ
    dof rx
    limits (0.0 90.0)
  end
  begin
     id 23
     name lthumb
     direction 0.707107 -6.3493e-011 0.707107   
     length 0.818718   
     axis -90 45 2.85299e-015   XYZ
    dof rx rz
    limits (-45.0 45.0)
           (-45.0 45.0)
  end
  begin
     id 24 
     name rclavicle
     direction -0.870343 0.482028 -0.100759   
     length 3.2251  
     axis 0 0 0   XYZ 
    dof ry rz
    limits (-10.0 20.0)
           (-20.0 0.0)
  end
  begin
     id 25 
     name rhumerus
     direction -1 -4.48974e-011 -9.45849e-028  
     length 4.71925   
     axis -180 30 90   XYZ
    dof rx ry rz
    limits (-90.0 60.0)
           (-90.0 90.0)
           (-90.0 90.0)
  end
  begin
     id 26 
     name rradius
     direction -1 -4.48965e-011 1.17607e-026   
     length 3.5699   
     axis -180 30 90   XYZ
    dof rx
    limits (-10.0 170.0)
  end
  begin
     id 27 
     name rwrist
     direction -1 -4.48968e-011 3.32647e-026   
     length 1.78495   
     axis -2.20186e-014 -90 -90   XYZ
    dof ry
    limits (-180.0 0.0)
  end
  begin
     id 28
     name rhand
     direction -1 -4.48995e-011 6.65293e-026   
     length 0.507757   
     axis -4.24514e-014 -90 -90   XYZ
    dof rx rz
    limits (-90.0 90.0)
           (-45.0 45.0)
  end
  begin
     id 29
     name rfingers
     direction -1 -4.48864e-011 1.33059e-025   
     length 0.409367   
     axis -8.49028e-014 -90 -90   XYZ
    dof rx
    limits (0.0 90.0)
  end
  begin
     id 30
     name rthumb
     direction -0.707107 -6.3494e-011 0.707107   
     length 0.587771   
     axis -90 -45 -2.85299e-015   XYZ
    dof rx rz
    limits (-45.0 45.0)
           (-45.0 45.0)
  end
:hierarchy
  begin
    root lhipjoint rhipjoint lowerback
    lhipjoint lfemur
    lfemur ltibia
    ltibia lfoot
    lfoot ltoes
    rhipjoint rfemur
    rfemur rtibia
    rtibia rfoot
    rfoot rtoes
    lowerback upperback
    upperback thorax
    thorax lowerneck lclavicle rclavicle
    lowerneck upperneck
    upperneck head
    lclavicle lhumerus
    lhumerus lradius
    lradius lwrist
    lwrist lhand lthumb
    lhand lfingers
    rclavicle rhumerus
    rhumerus rradius
    rradius rwrist
    rwrist rhand rthumb
    rhand rfingers
  end

#!OML:ASF E:\Steps\Project 1\Capture day 1\Session 2\Subject.ASF
:FULLY-SPECIFIED
:DEGREES
1
root 8.38866 16.2858 31.4418 -152.687 -0.215706 178.59
lowerback -30.1915 -1.19145 -6.37653
upperback -2.1553 -0.190761 -0.635606
thorax 13.4089 -0.795777 2.60867
lowerneck -8.10617 -3.0188 -1.91692
upperneck 9.18209 -4.52623 5.26031
head 4.23802 -2.0689 1.64358
rclavicle 5.06901e-015 -2.46493e-014
rhumerus -39.3441 -21.749 -75.5203
rradius 29.7275
rwrist 6.05893
rhand -8.59964 -54.4009
rfingers 7.12502
rthumb 17.3318 -83.6481
lclavicle 5.06901e-015 -2.46493e-014
lhumerus -34.1122 16.5196 74.5972
lradius 16.5447
lwrist -14.9203
lhand -19.4176 -8.71754
lfingers 7.12502
lthumb 6.902 21.1499
rfemur -24.1147 6.31558 19.5031
rtibia 6.61752
rfoot -18.985 -9.46347
rtoes -37.2573
lfemur -24.8435 -10.8505 -17.0892
ltibia 9.18795
lfoot -10.1865 5.58733
ltoes -45.1455
2
root 8.39271 16.285 31.4428 -152.647 -0.242274 178.529
lowerback -30.2278 -1.20168 -6.44706
upperback -2.13973 -0.172203 -0.670373
thorax 13.4398 -0.791889 2.61552
lowerneck -7.94047 -3.13731 -1.75353
upperneck 8.82243 -4.68544 5.26877
head 4.1034 -2.14798 1.61421
rclavicle 2.28602e-015 1.11319e-014
rhumerus -39.3143 -21.8847 -75.4456
rradius 29.6049
rwrist 6.1606
rhand -9.32666 -54.3306
rfingers 7.12502
rthumb 16.632 -83.638
lclavicle 2.28602e-015 1.11319e-014
lhumerus -34.1113 17.0364 74.2647
lradius 16.4137
lwrist -15.4261
lhand -19.235 -9.11874
lfingers 7.12502
lthumb 7.0783 20.7429
rfemur -24.1499 6.33911 19.4405
rtibia 6.60444
rfoot -18.9402 -9.54944
rtoes -37.3562
lfemur -24.906 -10.8766 -17.1225
ltibia 9.19952
lfoot -10.1906 5.55199
ltoes -44.847
3
root 8.39692 16.2865 31.4447 -152.6 -0.259095 178.518
lowerback -30.2605 -1.19162 -6.4682
upperback -2.12695 -0.145475 -0.691889
thorax 13.4661 -0.781448 2.61347
lowerneck -7.30568 -3.1055 -2.08924
upperneck 7.69812 -4.61561 5.81443
head 4.06592 -2.1402 2.05567
rclavicle 1.2921e-015 1.66979e-014
rhumerus -39.3108 -21.8975 -75.4326
rradius 29.5854
rwrist 6.13369
rhand -9.58806 -54.3814
rfingers 7.12502
rthumb 16.3803 -83.7097
lclavicle 1.2921e-015 1.66979e-014
lhumerus -34.0764 17.2119 74.1127
lradius 16.3575
lwrist -15.6688
lhand -19.07 -9.47439
lfingers 7.12502
lthumb 7.23762 20.3818
rfemur -24.2175 6.44867 19.4089
rtibia 6.63345
rfoot -18.9711 -9.65768
rtoes -37.5026
lfemur -24.9351 -10.8584 -17.1024
ltibia 9.10109
lfoot -10.0609 5.52859
ltoes -45.1903
4
root 8.39833 16.2867 31.4466 -152.57 -0.232848 178.522
lowerback -30.2642 -1.14161 -6.43737
upperback -2.13776 -0.0897716 -0.717017
thorax 13.4506 -0.754475 2.59116
lowerneck -7.49171 -3.12903 -2.02498
upperneck 7.97756 -4.65817 5.69123
head 4.19803 -2.15853 1.9986
rclavicle -2.43511e-015 1.98785e-015
rhumerus -39.414 -21.7496 -75.4381
rradius 29.6878
rwrist 5.98338
rhand -9.39317 -54.3744
rfingers 7.12502
rthumb 16.5679 -83.6871
lclavicle -2.43511e-015 1.98785e-015
lhumerus -34.1027 16.8824 74.2354
lradius 16.4713
lwrist -15.3395
lhand -19.1075 -9.41285
lfingers 7.12502
lthumb 7.20138 20.4446
rfemur -24.2718 6.59658 19.3455
rtibia 6.67206
rfoot -19.0504 -9.62816
rtoes -36.9603
lfemur -24.9959 -10.717 -17.1296
ltibia 9.13926
lfoot -10.0322 5.43822
ltoes -45.5471
5
root 8.40141 16.2836 31.4472 -152.594 -0.225054 178.605
lowerback -30.2274 -1.08796 -6.36101
upperback -2.15866 -0.051953 -0.702102
thorax 13.4084 -0.732136 2.58155
lowerneck -7.61601 -3.13077 -1.96946
upperneck 8.30424 -4.66842 5.51541
head 4.33222 -2.16445 1.92762
rclavicle -5.56597e-015 1.23246e-014
rhumerus -39.5602 -21.6115 -75.4222
rradius 29.7857
rwrist 5.86543
rhand -9.31123 -54.3527
rfingers 7.12502
rthumb 16.6468 -83.6589
lclavicle -5.56597e-015 1.23246e-014
lhumerus -34.1854 16.2185 74.5342
lradius 16.6909
lwrist -14.5373
lhand -19.3649 -9.21396
lfingers 7.12502
lthumb 6.95294 20.6519
rfemur -24.2437 6.74137 19.4134
rtibia 6.65062
rfoot -18.9783 -9.64228
rtoes -36.7753
lfemur -24.9976 -10.531 -17.0567
ltibia 9.19351
lfoot -10.0779 5.31807
ltoes -45.4394
6
root 8.40718 16.2819 31.4465 -152.629 -0.31268 178.773
lowerback -30.2132 -1.05873 -6.22707
upperback -2.14913 -0.0605703 -0.651429
thorax 13.4167 -0.727464 2.56182
lowerneck -7.11871 -3.00193 -2.36104
upperneck 7.78947 -4.49538 6.13079
head 4.07703 -2.08183 2.22422
rclavicle 1.49089e-016 -7.95139e-015
rhumerus -39.6206 -21.6228 -75.4056
rradius 29.7926
rwrist 5.95226
rhand -9.30195 -54.4137
rfingers 7.12502
rthumb 16.6558 -83.7191
lclavicle 1.49089e-016 -7.95139e-015
lhumerus -34.1643 15.8911 74.6768
lradius 16.7806
lwrist -14.1184
lhand -19.5416 -9.33935
lfingers 7.12502
lthumb 6.78237 20.532
rfemur -24.1794 6.90268 19.6285
rtibia 6.58308
rfoot -18.8944 -9.85612
rtoes -36.936
lfemur -24.9889 -10.4019 -16.8253
ltibia 9.21174
lfoot -10.0914 5.2276
ltoes -45.3335
